<?xml version="1.0" encoding="UTF-8" standalone="no"?>
<!-- Created with Inkscape (http://www.inkscape.org/) -->

<svg
   version="1.1"
   id="svg2"
   xml:space="preserve"
   width="160"
   height="160"
   viewBox="0 0 160 160"
   sodipodi:docname="logo.svg"
   inkscape:version="1.1.2 (0a00cf5339, 2022-02-04, custom)"
   xmlns:inkscape="http://www.inkscape.org/namespaces/inkscape"
   xmlns:sodipodi="http://sodipodi.sourceforge.net/DTD/sodipodi-0.dtd"
   xmlns="http://www.w3.org/2000/svg"
   xmlns:svg="http://www.w3.org/2000/svg"><defs
     id="defs6"><clipPath
       clipPathUnits="userSpaceOnUse"
       id="clipPath20"><path
         d="M 0,250 H 600 V 0 H 0 Z"
         id="path18" /></clipPath></defs><sodipodi:namedview
     id="namedview4"
     pagecolor="#ffffff"
     bordercolor="#666666"
     borderopacity="1.0"
     inkscape:pageshadow="2"
     inkscape:pageopacity="0.0"
     inkscape:pagecheckerboard="0"
     showgrid="false"
     inkscape:snap-page="true"
     inkscape:snap-object-midpoints="true"
     inkscape:snap-center="true"
     inkscape:snap-nodes="false"
     inkscape:zoom="1.92125"
     inkscape:cx="170.46194"
     inkscape:cy="76.512687"
     inkscape:current-layer="g16" /><g
     id="g8"
     inkscape:groupmode="layer"
     inkscape:label="logo-Theengs-final"
     transform="matrix(1.3333333,0,0,-1.3333333,0,333.33333)"><g
       id="g10"
       transform="translate(236.0116,166.8847)" /><g
       id="g14"><g
         id="g16"
         clip-path="url(#clipPath20)"><g
           id="g1451"
           transform="matrix(0.87087112,0,0,0.87087112,-41.247802,81.157086)"><g
             id="g46"
             transform="translate(120.4612,72.7851)"><path
               d="m 0,0 c -2.61,0 -4.726,2.116 -4.726,4.726 0,2.61 2.116,4.726 4.726,4.726 2.61,0 4.726,-2.116 4.726,-4.726 C 4.726,2.116 2.61,0 0,0 M 3.294,13.814 V 32.089 C 2.334,31.993 1.36,31.943 0.375,31.943 c -1.37,0 -2.716,0.102 -4.035,0.286 V 13.68 c -3.526,-1.447 -6.018,-4.913 -6.018,-8.955 0,-5.335 4.342,-9.677 9.679,-9.677 5.335,0 9.677,4.342 9.677,9.677 0,4.179 -2.667,7.737 -6.384,9.089 m -19.275,23.215 -4.585,-7.185 c -0.127,0.007 -0.253,0.02 -0.382,0.02 -4.165,0 -7.542,-3.377 -7.542,-7.542 0,-4.165 3.377,-7.541 7.542,-7.541 4.165,0 7.541,3.376 7.541,7.541 0,1.472 -0.428,2.84 -1.156,4.001 l 4.766,7.469 c -2.203,0.831 -4.276,1.922 -6.184,3.237 M 20.278,18.635 c -2.037,0 -3.688,1.651 -3.688,3.687 0,2.037 1.651,3.688 3.688,3.688 2.037,0 3.688,-1.651 3.688,-3.688 0,-2.036 -1.651,-3.687 -3.688,-3.687 m 0,11.229 c -0.112,0 -0.221,-0.012 -0.332,-0.017 l -4.028,6.646 c -1.951,-1.25 -4.061,-2.271 -6.295,-3.027 l 4.3,-7.095 c -0.748,-1.17 -1.186,-2.557 -1.186,-4.049 0,-4.165 3.376,-7.541 7.541,-7.541 4.165,0 7.541,3.376 7.541,7.541 0,4.165 -3.376,7.542 -7.541,7.542 M -43.405,22.6 c -3.178,0 -5.755,2.577 -5.755,5.755 0,3.179 2.577,5.756 5.755,5.756 3.179,0 5.755,-2.577 5.755,-5.756 0,-3.178 -2.576,-5.755 -5.755,-5.755 m 23.94,17.257 c -1.692,1.604 -3.189,3.409 -4.454,5.38 L -34.998,37.68 c -2.228,2.01 -5.17,3.244 -8.407,3.244 -6.941,0 -12.569,-5.627 -12.569,-12.569 0,-6.941 5.628,-12.569 12.569,-12.569 6.942,0 12.569,5.628 12.569,12.569 0,1.186 -0.175,2.329 -0.482,3.417 z m -34.572,43.01 c 0,3.179 2.576,5.756 5.755,5.756 3.178,0 5.755,-2.577 5.755,-5.756 0,-3.178 -2.577,-5.755 -5.755,-5.755 -3.179,0 -5.755,2.577 -5.755,5.755 m 14.452,-9.06 11.834,-6.575 c 0.562,2.465 1.437,4.81 2.585,6.991 l -10.827,6.015 c 0.18,0.849 0.28,1.727 0.28,2.629 0,6.942 -5.628,12.569 -12.569,12.569 -6.942,0 -12.569,-5.627 -12.569,-12.569 0,-6.941 5.627,-12.569 12.569,-12.569 3.378,0 6.438,1.34 8.697,3.509 m -1.867,-15.452 c -1.165,2.661 -3.818,4.521 -6.908,4.521 -4.165,0 -7.541,-3.376 -7.541,-7.541 0,-4.165 3.376,-7.542 7.541,-7.542 2.558,0 4.815,1.277 6.178,3.225 l 15.734,-0.853 c -0.936,2.356 -1.573,4.863 -1.857,7.477 z M 42.735,38.578 c -2.376,0 -4.556,-0.817 -6.292,-2.176 L 24.561,45.069 C 23.286,43.112 21.78,41.32 20.081,39.73 L 32.74,30.496 c -0.147,-0.691 -0.228,-1.406 -0.228,-2.141 0,-5.645 4.577,-10.222 10.223,-10.222 5.646,0 10.222,4.577 10.222,10.222 0,5.646 -4.576,10.223 -10.222,10.223 m 1.362,16.881 c 2.036,0 3.687,-1.651 3.687,-3.688 0,-2.036 -1.651,-3.687 -3.687,-3.687 -2.037,0 -3.688,1.651 -3.688,3.687 0,2.037 1.651,3.688 3.688,3.688 m 0,-11.229 c 4.165,0 7.541,3.376 7.541,7.541 0,4.165 -3.376,7.542 -7.541,7.542 -2.771,0 -5.186,-1.499 -6.497,-3.726 l -8.764,0.476 C 28.415,53.515 27.66,51.082 26.618,48.806 l 10.827,-0.587 c 1.271,-2.374 3.772,-3.989 6.652,-3.989 m -5.184,21.746 c 1.335,-1.196 3.093,-1.93 5.027,-1.93 4.165,0 7.541,3.376 7.541,7.541 0,4.165 -3.376,7.541 -7.541,7.541 -3.693,0 -6.76,-2.656 -7.409,-6.161 l -8.59,-3.621 c 0.735,-2.371 1.165,-4.875 1.261,-7.464 z"
               style="fill:#0f295c;fill-opacity:1;fill-rule:nonzero;stroke:none"
               id="path48" /></g><g
             id="g50"
             transform="translate(110.9563,128.9717)"><path
               d="m 0,0 c 0,-4.873 3.95,-8.823 8.823,-8.823 4.873,0 8.823,3.95 8.823,8.823 0,4.873 -3.95,8.823 -8.823,8.823 C 3.95,8.823 0,4.873 0,0"
               style="fill:#f7931e;fill-opacity:1;fill-rule:nonzero;stroke:none"
               id="path52" /></g><g
             id="g54"
             transform="translate(121.2122,175.3394)"><path
               d="m 0,0 c -7.571,0 -14.663,-2.076 -20.751,-5.676 l -3.345,6.094 C -17.013,4.565 -8.783,6.954 0,6.954 c 17.505,0 32.835,-9.453 41.178,-23.517 l -5.892,-3.698 C 28.178,-8.153 15.027,0 0,0"
               style="fill:#f7931e;fill-opacity:1;fill-rule:nonzero;stroke:none"
               id="path56" /></g><g
             id="g58"
             transform="translate(121.2122,160.0871)"><path
               d="m 0,0 c -4.913,0 -9.506,-1.391 -13.411,-3.797 l -3.348,6.101 c 4.901,2.949 10.634,4.65 16.759,4.65 12.071,0 22.622,-6.6 28.256,-16.376 L 22.364,-13.12 C 17.968,-5.299 9.593,0 0,0"
               style="fill:#f7931e;fill-opacity:1;fill-rule:nonzero;stroke:none"
               id="path60" /></g><g
             id="g62"
             transform="translate(120.2785,144.832)"><path
               d="M 0,0 C -1.972,0 -3.844,-0.427 -5.54,-1.179 L -8.887,4.918 C -6.19,6.209 -3.184,6.954 0,6.954 c 6.992,0 13.172,-3.498 16.914,-8.826 l -5.9,-3.704 C 8.513,-2.201 4.514,0 0,0"
               style="fill:#f7931e;fill-opacity:1;fill-rule:nonzero;stroke:none"
               id="path64" /></g></g></g></g></g></svg>
