<?xml version="1.0" encoding="UTF-8" standalone="no"?>
<svg
   height="16"
   width="16"
   viewBox="0 0 512 512"
   version="1.1"
   id="svg1"
   xmlns="http://www.w3.org/2000/svg"
   xmlns:svg="http://www.w3.org/2000/svg">
  <!--!Font Awesome Free 6.5.0 by @fontawesome - https://fontawesome.com License - https://fontawesome.com/license/free Copyright 2023 Fonticons, Inc.-->
  <path
     d="m 256,112 c -8.8,0 -16,-7.2 -16,-16 V 80 C 240,35.8 275.8,0 320,0 h 16 c 8.8,0 16,7.2 16,16 v 16 c 0,44.2 -35.8,80 -80,80 z M 32,288 c 0,-76.3 35.7,-160 112,-160 27.3,0 59.7,10.3 82.7,19.3 18.8,7.3 39.9,7.3 58.7,0 22.9,-8.9 55.4,-19.3 82.7,-19.3 76.3,0 112,83.7 112,160 0,128 -80,224 -160,224 -16.5,0 -38.1,-6.6 -51.5,-11.3 -8.1,-2.8 -16.9,-2.8 -25,0 -13.4,4.7 -35,11.3 -51.5,11.3 C 112,512 32,416 32,288 Z"
     id="path1" />
</svg>
