<?xml version="1.0" encoding="UTF-8" standalone="no"?>
<svg
   height="20"
   width="20"
   viewBox="0 0 640 640"
   version="1.1"
   id="svg1"
   xmlns="http://www.w3.org/2000/svg"
   xmlns:svg="http://www.w3.org/2000/svg">
  <!--!Font Awesome Free 6.5.0 by @fontawesome - https://fontawesome.com License - https://fontawesome.com/license/free Copyright 2023 Fonticons, Inc.-->
  <path
     d="M 96.477674,287.84078 V 320 480.79612 c 0,17.78807 14.371156,32.15923 32.159226,32.15923 h 32.15922 c 17.78807,0 32.15923,-14.37116 32.15923,-32.15923 v -88.63886 c 9.94926,6.63284 20.7025,12.05971 32.15922,16.18011 v 24.21992 c 0,8.84378 7.23583,16.07961 16.07961,16.07961 8.84379,0 16.07962,-7.23583 16.07962,-16.07961 V 415.5732 c 5.32637,0.60298 10.65274,0.90447 16.07961,0.90447 5.42687,0 10.75324,-0.30149 16.07961,-0.90447 v 16.98409 c 0,8.84378 7.23583,16.07961 16.07961,16.07961 8.84379,0 16.07962,-7.23583 16.07962,-16.07961 v -24.32042 c 11.45672,-4.0199 22.20996,-9.44677 32.15922,-16.18011 v 88.73936 c 0,17.78807 14.37115,32.15923 32.15922,32.15923 h 32.15923 c 17.78807,0 32.15922,-14.37116 32.15922,-32.15923 V 320 l 32.15923,32.15922 v 49.7463 c 0,9.54727 2.81393,18.79305 8.1403,26.73236 l 42.10849,63.21298 c 8.84378,13.16518 23.61693,21.10449 39.49554,21.10449 22.61196,0 42.10849,-15.97912 46.53038,-38.18908 l 20.40101,-102.10554 c 2.61294,-13.06468 -0.30149,-26.63186 -8.03981,-37.4856 l -3.9194,-5.52736 v -82.00603 c 0,-13.36617 -10.75324,-24.11941 -24.11942,-24.11941 -13.36618,0 -24.11942,10.75324 -24.11942,24.11941 V 262.1134 L 525.70282,187.64469 C 498.46798,149.65661 454.65104,127.04465 407.91966,127.04465 H 273.35341 257.2738 192.95535 144.71651 c -66.629893,0 -120.597092,53.9672 -120.597092,120.59709 v 54.2687 C 9.4467722,313.76915 0,331.85871 0,352.15922 v 17.68758 c 0,8.0398 6.4318449,14.47165 14.471651,14.47165 31.958229,0 57.886604,-25.92838 57.886604,-57.88661 V 320 287.84078 247.64174 c 0,-24.42091 12.160207,-46.02789 30.651765,-59.19307 -4.220902,10.85374 -6.532346,22.71245 -6.532346,35.07366 z M 562.78643,400.39806 a 16.079612,16.079612 0 1 1 32.15922,0 16.079612,16.079612 0 1 1 -32.15922,0 z M 167.42896,230.15517 c -4.2209,-4.2209 -6.63284,-10.04976 -6.63284,-16.07962 0,-12.56219 10.15026,-22.71245 22.71245,-22.71245 h 179.68967 c 12.5622,0 22.71245,10.15026 22.71245,22.71245 0,6.02986 -2.41194,11.85872 -6.63284,16.07962 l -23.51643,23.51643 c -21.90847,21.90847 -51.55526,34.16918 -82.40801,34.16918 -30.85276,0 -60.49954,-12.26071 -82.30752,-34.06868 l -23.51643,-23.51644 z"
     id="path1" />
</svg>
