<?xml version="1.0" encoding="UTF-8" standalone="no"?>
<svg
   height="16"
   width="16"
   viewBox="0 0 512 512"
   version="1.1"
   id="svg1"
   xmlns="http://www.w3.org/2000/svg"
   xmlns:svg="http://www.w3.org/2000/svg">
  <!--!Font Awesome Free 6.5.0 by @fontawesome - https://fontawesome.com License - https://fontawesome.com/license/free Copyright 2023 Fonticons, Inc.-->
  <path
     d="M 256,512 C 142.93333,512 51.2,403.2 51.2,290.13334 51.2,170.66666 119.46667,0 256,0 392.53334,0 460.8,170.66666 460.8,290.13334 460.8,403.2 369.06666,512 256,512 Z M 216.32,125.86666 c 6.93334,-6.4 7.46666,-17.17332 1.06666,-24.10666 -6.4,-6.933334 -17.17332,-7.466666 -24.10666,-1.06667 -25.49334,23.25333 -43.84,56.21333 -55.78667,89.81333 -11.94666,33.6 -18.02666,69.44 -18.02666,99.62668 0,9.38666 7.68,17.06666 17.06666,17.06666 9.38667,0 17.06667,-7.68 17.06667,-17.06666 0,-26.13334 5.33334,-58.02668 16.10666,-88.32 10.77334,-30.4 26.66668,-57.70668 46.61334,-75.94668 z"
     id="path1" />
</svg>
