<?xml version="1.0" encoding="UTF-8" standalone="no"?>
<svg
   height="18"
   width="18"
   viewBox="0 0 576 576"
   version="1.1"
   id="svg1"
   xmlns="http://www.w3.org/2000/svg"
   xmlns:svg="http://www.w3.org/2000/svg">
  <!--!Font Awesome Free 6.5.0 by @fontawesome - https://fontawesome.com License - https://fontawesome.com/license/free Copyright 2023 Fonticons, Inc.-->
  <path
     d="m 275.2064,70.399863 c -10.59977,-7.999829 -24.99947,-8.499819 -36.29923,-1.499968 -11.29976,6.999851 -16.89964,20.399566 -14.29969,33.399285 l 9.69979,48.59897 c -19.39959,8.99981 -36.89921,19.89957 -52.39888,31.49933 -15.29968,11.49975 -28.99939,23.89949 -40.69914,36.29922 L 48.111235,164.39786 c -12.499734,-7.29984 -28.399395,-5.29989 -38.5991783,4.8999 -10.19978293,10.19978 -12.499734,25.99944 -5.2998872,38.59917 l 45.7990255,80.0983 -45.7990255,80.09829 c -7.1998468,12.59974 -4.9998936,28.3994 5.2998872,38.59918 10.2997803,10.19979 26.0994443,12.19974 38.5991783,4.8999 l 93.098015,-54.29885 c 11.79975,12.29974 25.39946,24.79948 40.69914,36.29923 15.49967,11.59975 32.99929,22.49952 52.39888,31.49933 l -9.69979,48.59897 c -2.59995,12.99972 3.09993,26.29944 14.29969,33.29929 11.19977,6.99985 25.59946,6.49986 36.29923,-1.49997 l 77.59835,-58.19876 c 54.89883,-3.99992 101.49784,-26.99943 137.19708,-53.79886 39.19917,-29.39937 67.19857,-64.69862 81.59826,-89.49809 5.79988,-9.89979 5.79988,-22.19953 0,-32.09932 C 557.2004,247.0961 529.101,211.79685 490.00183,182.39748 454.20259,155.59805 407.70358,132.59854 352.80475,128.59863 Z M 384.00409,287.99523 a 31.999319,31.999319 0 1 1 63.99863,0 31.999319,31.999319 0 1 1 -63.99863,0 z"
     id="path1"
     style="stroke-width:1" />
</svg>
