<?xml version="1.0" encoding="UTF-8" standalone="no"?>
<svg
   height="18"
   width="18"
   viewBox="0 0 576 576"
   version="1.1"
   id="svg1"
   xmlns="http://www.w3.org/2000/svg"
   xmlns:svg="http://www.w3.org/2000/svg">
  <!--!Font Awesome Free 6.5.0 by @fontawesome - https://fontawesome.com License - https://fontawesome.com/license/free Copyright 2023 Fonticons, Inc.-->
  <path
     d="M 291.2,420.4 C 322.4,401.6 355.9,384 392.3,384 H 448 c 4.6,0 9.1,-0.2 13.6,-0.7 l 85.3,121.9 c 4,5.7 11.3,8.2 17.9,6.1 C 571.4,509.2 576,503 576,496 V 256 C 576,185.3 518.7,128 448,128 H 392.3 C 355.9,128 322.4,110.4 291.2,91.6 262.3,74.1 228.3,64 192,64 86,64 0,150 0,256 0,327.1 38.6,389.1 96,422.3 V 488 c 0,13.3 10.7,24 24,24 13.3,0 24,-10.7 24,-24 v -46 c 15.3,3.9 31.4,6 48,6 5.4,0 10.7,-0.2 16,-0.7 V 488 c 0,13.3 10.7,24 24,24 13.3,0 24,-10.7 24,-24 v -50.9 c 12.4,-4.4 24.2,-10 35.2,-16.7 z M 448,232 a 24,24 0 1 1 0,48 24,24 0 1 1 0,-48 z"
     id="path1" />
</svg>
