<?xml version="1.0" encoding="UTF-8" standalone="no"?>
<svg
   height="16"
   width="16"
   viewBox="0 0 512 512"
   version="1.1"
   id="svg1"
   xmlns="http://www.w3.org/2000/svg"
   xmlns:svg="http://www.w3.org/2000/svg">
  <!--!Font Awesome Free 6.5.1 by @fontawesome - https://fontawesome.com License - https://fontawesome.com/license/free Copyright 2024 Fonticons, Inc.-->
  <path
     d="m 497.77785,184.07347 h -26.2221 c -7.82218,-17.77769 -19.1999,-33.51094 -33.24428,-46.66644 l 16.79992,-67.110778 h -28.44431 c -26.1332,0 -49.2442,11.99994 -64.88857,30.488738 -6.75552,-0.977768 -13.42215,-2.044428 -20.44434,-2.044428 H 227.55695 c -68.79967,0 -126.13272,48.888648 -139.377099,113.777218 H 49.780039 c -13.155491,0 -23.55544,-11.99994 -20.888787,-25.59988 1.955546,-10.13328 11.466611,-17.06658 21.777672,-17.06658 h 0.888884 c 2.933319,0 5.333308,-2.39999 5.333308,-5.33331 v -17.77769 c 0,-2.93332 -2.399989,-5.33331 -5.333308,-5.33331 -25.333209,0 -47.9108764,18.13325 -51.11086079,43.19979 -3.91109201,30.39985 19.73323679,56.35528 49.33309179,56.35528 h 35.555382 c 0,46.39978 22.577669,87.19958 56.888609,113.155 v 71.73299 c 0,7.82218 6.39997,14.22215 14.22215,14.22215 h 56.88861 c 7.82219,0 14.22216,-6.39997 14.22216,-14.22215 v -42.66646 h 113.77722 v 42.66646 c 0,7.82218 6.39997,14.22215 14.22215,14.22215 h 56.88861 c 7.82219,0 14.22215,-6.39997 14.22215,-14.22215 v -71.73299 c 10.48884,-7.91107 19.82213,-17.24436 27.82209,-27.82208 h 43.28868 C 505.60003,326.295 512,319.89503 512,312.07285 V 198.29563 c 0,-7.82219 -6.39997,-14.22216 -14.22215,-14.22216 z m -113.77722,56.88861 c -7.82219,0 -14.22216,-6.39997 -14.22216,-14.22215 0,-7.82218 6.39997,-14.22215 14.22216,-14.22215 7.82218,0 14.22215,6.39997 14.22215,14.22215 0,7.82218 -6.39997,14.22215 -14.22215,14.22215 z"
     id="path1"
     style="stroke-width:0.888885" />
</svg>
