<?xml version="1.0" encoding="UTF-8" standalone="no"?>
<svg
   version="1.1"
   viewBox="0.00 0.00 128.00 128.00"
   id="svg11"
   sodipodi:docname="Logo_Jeedom.svg"
   inkscape:version="1.4.2 (ebf0e940d0, 2025-05-08)"
   xmlns:inkscape="http://www.inkscape.org/namespaces/inkscape"
   xmlns:sodipodi="http://sodipodi.sourceforge.net/DTD/sodipodi-0.dtd"
   xmlns="http://www.w3.org/2000/svg"
   xmlns:svg="http://www.w3.org/2000/svg">
  <defs
     id="defs11" />
  <sodipodi:namedview
     id="namedview11"
     pagecolor="#ffffff"
     bordercolor="#666666"
     borderopacity="1.0"
     inkscape:showpageshadow="2"
     inkscape:pageopacity="0.0"
     inkscape:pagecheckerboard="0"
     inkscape:deskcolor="#d1d1d1"
     inkscape:zoom="5.4634312"
     inkscape:cx="21.049043"
     inkscape:cy="60.85919"
     inkscape:current-layer="svg11" />
  <path
     fill="#94ca02"
     d="M 49.690459,30.796807 27.261544,59.546681 q -0.282756,0.364846 -0.747934,0.364846 H 8.8824209 A 0.37396727,0.37396727 0 0 1 8.590544,59.309531 L 49.471551,6.3521168 Q 49.991457,5.6771515 50.666422,6.2061783 51.67887,6.9905975 52.86462,8.5411935 79.170025,42.92794 105.65785,77.66129 a 0.31924035,0.32836151 71.5 0 1 -0.26451,0.519906 L 87.971938,78.13559 q -0.456058,0 -0.738813,-0.355725 L 50.675544,30.796807 a 0.6202384,0.6202384 0 0 0 -0.985085,0 z"
     id="path1"
     style="stroke-width:0.912115" />
  <path
     fill="#454449"
     d="M 91.082251,21.821592 90.83598,54.831045 a 0.3101192,0.3101192 0 0 1 -0.55639,0.191544 L 75.193203,35.594533 Q 74.910447,35.229687 74.910447,34.764508 V 22.268529 q 0,-0.592875 0.592875,-0.583754 z"
     id="path4"
     style="stroke-width:0.912115" />
  <path
     fill="#454449"
     d="m 43.615771,73.593256 h -9.723149 a 0.50166341,0.50166341 0 0 0 -0.501663,0.501664 l 0.02736,27.60061 a 0.50166341,0.50166341 0 0 1 -0.510784,0.50166 l -6.457777,-0.14594 a 0.50166341,0.50166341 0 0 1 -0.355725,-0.15506 L 22.381727,98.06531 A 0.50166341,0.50166341 0 0 1 22.235789,97.718706 V 62.009392 a 0.50166341,0.50166341 0 0 1 0.501663,-0.501663 h 4.961907 a 0.50166341,0.50166341 0 0 0 0.401331,-0.200666 l 11.264624,-14.8766 a 0.50166341,0.50166341 0 0 1 0.401331,-0.200666 h 20.458746 a 0.50166341,0.50166341 0 0 1 0.40133,0.191545 l 16.910618,21.708344 a 0.50166341,0.50166341 0 0 1 0.109454,0.310119 v 30.373439 a 0.50166341,0.50166341 0 0 1 -0.145939,0.355725 l -2.827557,2.827561 a 0.50166341,0.50166341 0 0 1 -0.355725,0.14593 l -29.689353,-0.0547 a 0.50166341,0.50166341 0 0 1 -0.501663,-0.50167 l -0.0091,-27.49115 a 0.50166341,0.50166341 0 0 0 -0.501664,-0.501664 z m 0.949968,-13.563793 a 0.35572496,0.35572496 0 0 0 -0.356363,-0.355086 l -10.507568,0.01833 a 0.35572496,0.35572496 0 0 0 -0.355087,0.356273 l 0.01551,8.86576 a 0.35572496,0.35572496 0 0 0 0.356364,0.355087 l 10.507568,-0.01833 a 0.35572496,0.35572496 0 0 0 0.355086,-0.356272 z"
     id="path5"
     style="stroke-width:0.912115" />
  <path
     fill="#454449"
     d="M 40.870304,122.39142 H 11.709978 q -0.985084,-0.0912 -1.532353,-0.57463 C 8.891542,120.68577 9.5209016,107.21383 9.6577189,105.04299 a 1.3316883,1.3408095 1.9 0 1 1.3316881,-1.2496 l 6.895592,0.0274 a 1.249598,1.249598 0 0 1 1.249598,1.21311 l 0.191544,6.90471 a 0.43781534,0.43781534 0 0 0 0.437815,0.41958 h 13.298641 q 0.574633,0 0.574633,-0.56552 V 103.009 q 0,-0.45605 0.456058,-0.45605 h 9.312697 q 0.40133,0 0.410452,0.40133 0.328361,11.46529 -0.182423,17.38491 -0.164181,1.86072 -2.76371,2.05226 z"
     id="path6"
     style="stroke-width:0.912115" />
  <path
     fill="#454449"
     d="m 50.511363,113.23379 v 1.52323 a 0.57463263,0.56551148 0 0 0 0.574633,0.56551 h 6.266232 q 0.456057,0 0.456057,0.45606 v 2.05226 q 0,0.45606 -0.456057,0.45606 H 46.862902 q -0.456058,0 -0.456058,-0.45606 v -12.54159 q 0,-0.45606 0.456058,-0.45606 h 10.142722 q 0.492542,0 0.519905,0.50167 l 0.07297,1.90632 q 0.02736,0.53815 -0.519906,0.54727 c -1.112781,0.009 -7.743859,-0.89387 -6.457776,1.69653 q 0.182423,0.36485 0.583753,0.36485 h 5.354117 q 0.565512,0 0.565512,0.57463 v 1.84247 a 0.57463263,0.57463263 0 0 1 -0.592875,0.57464 l -5.527419,-0.10034 a 0.48342111,0.49254226 0.5 0 0 -0.492542,0.49255 z"
     id="path7"
     style="stroke-width:0.912115" />
  <path
     fill="#454449"
     d="m 64.193092,113.21554 v 1.53236 q 0,0.57463 0.574633,0.57463 h 5.919628 q 0.574633,0 0.574633,0.57463 v 1.84248 q 0,0.57463 -0.574633,0.56551 -5.116967,-0.0456 -10.252176,-0.009 a 0.56551148,0.56551148 0 0 1 -0.574632,-0.56551 v -12.44126 a 0.45605765,0.45605765 0 0 1 0.456057,-0.45606 h 10.261297 q 0.456058,0 0.456058,0.45606 v 2.05226 q 0,0.44694 -0.456058,0.45606 l -5.919628,0.009 a 0.70232878,0.70232878 0 0 0 -0.656723,0.9486 l 0.23715,0.63848 q 0.164181,0.45606 0.647602,0.45606 h 5.116967 q 0.574632,0 0.574632,0.56551 v 1.73302 a 0.63848071,0.63848071 0 0 1 -0.611117,0.63848 q -2.60865,0.11858 -5.208178,-0.0912 -0.565512,-0.0547 -0.565512,0.5199 z"
     id="path8"
     style="stroke-width:0.912115" />
  <path
     fill="#94ca02"
     d="m 101.53509,111.70143 a 7.1053781,7.1053781 0 0 1 -7.105376,7.10538 7.1053781,7.1053781 0 0 1 -7.105378,-7.10538 7.1053781,7.1053781 0 0 1 7.105378,-7.10537 7.1053781,7.1053781 0 0 1 7.105376,7.10537 z m -7.058037,3.77561 a 3.757915,2.7272247 89 0 0 2.661188,-3.80498 3.757915,2.7272247 89 0 0 -2.79235,-3.70975 3.757915,2.7272247 89 0 0 -2.661188,3.80498 3.757915,2.7272247 89 0 0 2.79235,3.70975 z"
     id="path9"
     style="stroke-width:0.912115" />
  <path
     fill="#94ca02"
     d="m 114.70604,110.4792 -1.79687,7.40637 a 0.48342111,0.50166341 6 0 1 -0.44694,0.37397 l -2.57216,0.10033 q -0.41045,0.0182 -0.51079,-0.38308 l -1.82423,-7.25132 a 0.24627113,0.25539228 37.8 0 0 -0.49254,0.0639 v 6.90471 q 0,0.54727 -0.54727,0.57463 l -2.32589,0.0821 q -0.48342,0.0182 -0.50167,-0.46518 -0.28275,-6.31183 -0.20066,-12.63279 a 0.41045188,0.41045188 0 0 1 0.42869,-0.40133 l 4.67915,0.25539 q 0.56552,0.0274 0.70233,0.58375 l 1.34993,5.29939 q 0.4743,1.8516 0.9486,0.009 l 1.45027,-5.66423 q 0.12769,-0.50167 0.6476,-0.50167 h 4.43288 q 0.56551,0 0.56551,0.57464 v 12.62367 a 0.43781534,0.43781534 0 0 1 -0.48342,0.43782 l -2.64513,-0.23715 q -0.51991,-0.0547 -0.51991,-0.57463 v -7.14187 a 0.17330191,0.17330191 0 0 0 -0.33748,-0.0365 z"
     id="path10"
     style="stroke-width:0.912115" />
  <path
     fill="#94ca02"
     d="m 73.524032,105.69971 a 0.62935955,0.62935955 0 0 1 0.629359,-0.62936 l 5.983477,-0.009 a 5.4635706,5.7189629 89.9 0 1 5.728084,5.45445 v 2.55393 a 5.4635706,5.7189629 89.9 0 1 -5.709842,5.47269 l -5.983476,0.009 a 0.62935955,0.62935955 0 0 1 -0.62936,-0.62936 z m 4.806847,9.73227 c 4.460244,0.41046 4.551456,-6.5581 0.665844,-7.24219 a 0.95772106,0.95772106 0 0 0 -1.121901,0.9486 v 5.79193 a 0.49254226,0.50166341 2.2 0 0 0.456057,0.50166 z"
     id="path11"
     style="stroke-width:0.912115" />
</svg>
