<?xml version="1.0" encoding="UTF-8" standalone="no"?>
<svg
   viewBox="0 0 256 256"
   overflow="visible"
   version="1.1"
   id="svg8"
   sodipodi:docname="Mqtt-hor (copie).svg"
   width="256"
   height="256"
   inkscape:version="1.1.2 (0a00cf5339, 2022-02-04, custom)"
   xmlns:inkscape="http://www.inkscape.org/namespaces/inkscape"
   xmlns:sodipodi="http://sodipodi.sourceforge.net/DTD/sodipodi-0.dtd"
   xmlns="http://www.w3.org/2000/svg"
   xmlns:svg="http://www.w3.org/2000/svg">
  <defs
     id="defs12" />
  <sodipodi:namedview
     id="namedview10"
     pagecolor="#ffffff"
     bordercolor="#666666"
     borderopacity="1.0"
     inkscape:pageshadow="2"
     inkscape:pageopacity="0.0"
     inkscape:pagecheckerboard="0"
     showgrid="false"
     inkscape:snap-page="true"
     inkscape:snap-grids="false"
     inkscape:snap-object-midpoints="true"
     inkscape:snap-center="true"
     inkscape:zoom="2.482915"
     inkscape:cx="74.106442"
     inkscape:cy="116.19407"
     inkscape:current-layer="svg8" />
  <path
     d="M 24.6,144.2 H 24 v 77.6 c 0,5.6 4.6,10.2 10.2,10.2 h 79.9 C 113.4,183.5 73.6,144.2 24.6,144.2 Z m 0,-64.00001 H 24 V 113.2 c 65.899995,0.3 119.5,53.3 120.2,118.8 h 34.2 C 177.8,148.2 109.1,80.19999 24.6,80.19999 Z M 226.9,221.9 V 151.8 C 203.7,94.99999 157,50.099995 98.899995,29.199992 H 34.2 c -5.6,0 -10.2,4.6 -10.2,10.2 v 9.900003 C 125.4,49.599995 207.9,131.3 208.5,232.1 h 8.2 c 5.7,-0.1 10.2,-4.6 10.2,-10.2 z M 200.2,57.499995 c 9.4,9.4 19,21.299995 26.7,31.799995 V 39.299992 a 10.07,10.07 0 0 0 -10.1,-10.1 h -51.5 c 12,8.3 24.4,17.800003 34.9,28.300003 z"
     fill="#660066"
     id="path6" />
</svg>
